<?xml version="1.0" encoding="UTF-8" standalone="no"?>
<!DOCTYPE svg PUBLIC "-//W3C//DTD SVG 1.1//EN"
 "http://www.w3.org/Graphics/SVG/1.1/DTD/svg11.dtd">
<!-- Generated by graphviz version 2.40.1 (20161225.0304)
 -->
<!-- Title: G Pages: 1 -->
<svg width="1398pt" height="3164pt"
 viewBox="0.00 0.00 1398.49 3163.89" xmlns="http://www.w3.org/2000/svg" xmlns:xlink="http://www.w3.org/1999/xlink">
<g id="graph0" class="graph" transform="scale(1 1) rotate(0) translate(4 3159.8948)">
<title>G</title>
<polygon fill="#ffffff" stroke="transparent" points="-4,4 -4,-3159.8948 1394.4926,-3159.8948 1394.4926,4 -4,4"/>
<g id="clust1" class="cluster">
<title>cluster_Global</title>
<path fill="none" stroke="#c0c0c0" d="M20,-114.8948C20,-114.8948 1370.4926,-114.8948 1370.4926,-114.8948 1376.4926,-114.8948 1382.4926,-120.8948 1382.4926,-126.8948 1382.4926,-126.8948 1382.4926,-3135.8948 1382.4926,-3135.8948 1382.4926,-3141.8948 1376.4926,-3147.8948 1370.4926,-3147.8948 1370.4926,-3147.8948 20,-3147.8948 20,-3147.8948 14,-3147.8948 8,-3141.8948 8,-3135.8948 8,-3135.8948 8,-126.8948 8,-126.8948 8,-120.8948 14,-114.8948 20,-114.8948"/>
<text text-anchor="middle" x="695.2463" y="-3133.9948" font-family="Times,serif" font-size="11.00" fill="#c0c0c0">Global</text>
</g>
<g id="clust2" class="cluster">
<title>cluster_\Mahw17</title>
<path fill="none" stroke="#c0c0c0" d="M1020.6089,-2819.8948C1020.6089,-2819.8948 1359.1932,-2819.8948 1359.1932,-2819.8948 1365.1932,-2819.8948 1371.1932,-2825.8948 1371.1932,-2831.8948 1371.1932,-2831.8948 1371.1932,-3106.8948 1371.1932,-3106.8948 1371.1932,-3112.8948 1365.1932,-3118.8948 1359.1932,-3118.8948 1359.1932,-3118.8948 1020.6089,-3118.8948 1020.6089,-3118.8948 1014.6089,-3118.8948 1008.6089,-3112.8948 1008.6089,-3106.8948 1008.6089,-3106.8948 1008.6089,-2831.8948 1008.6089,-2831.8948 1008.6089,-2825.8948 1014.6089,-2819.8948 1020.6089,-2819.8948"/>
<text text-anchor="middle" x="1189.901" y="-3104.9948" font-family="Times,serif" font-size="11.00" fill="#c0c0c0">Mahw17</text>
</g>
<g id="clust3" class="cluster">
<title>cluster_\Mahw17\Dice</title>
<path fill="none" stroke="#c0c0c0" d="M1028.6089,-2962.8948C1028.6089,-2962.8948 1341.2948,-2962.8948 1341.2948,-2962.8948 1347.2948,-2962.8948 1353.2948,-2968.8948 1353.2948,-2974.8948 1353.2948,-2974.8948 1353.2948,-3077.8948 1353.2948,-3077.8948 1353.2948,-3083.8948 1347.2948,-3089.8948 1341.2948,-3089.8948 1341.2948,-3089.8948 1028.6089,-3089.8948 1028.6089,-3089.8948 1022.6089,-3089.8948 1016.6089,-3083.8948 1016.6089,-3077.8948 1016.6089,-3077.8948 1016.6089,-2974.8948 1016.6089,-2974.8948 1016.6089,-2968.8948 1022.6089,-2962.8948 1028.6089,-2962.8948"/>
<text text-anchor="middle" x="1184.9519" y="-3075.9948" font-family="Times,serif" font-size="11.00" fill="#c0c0c0">Dice</text>
</g>
<g id="clust4" class="cluster">
<title>cluster_\Mahw17\Guess</title>
<path fill="none" stroke="#c0c0c0" d="M1250.8086,-2827.8948C1250.8086,-2827.8948 1351.1932,-2827.8948 1351.1932,-2827.8948 1357.1932,-2827.8948 1363.1932,-2833.8948 1363.1932,-2839.8948 1363.1932,-2839.8948 1363.1932,-2942.8948 1363.1932,-2942.8948 1363.1932,-2948.8948 1357.1932,-2954.8948 1351.1932,-2954.8948 1351.1932,-2954.8948 1250.8086,-2954.8948 1250.8086,-2954.8948 1244.8086,-2954.8948 1238.8086,-2948.8948 1238.8086,-2942.8948 1238.8086,-2942.8948 1238.8086,-2839.8948 1238.8086,-2839.8948 1238.8086,-2833.8948 1244.8086,-2827.8948 1250.8086,-2827.8948"/>
<text text-anchor="middle" x="1301.0009" y="-2940.9948" font-family="Times,serif" font-size="11.00" fill="#c0c0c0">Guess</text>
</g>
<g id="clust5" class="cluster">
<title>cluster_\mahw17</title>
<path fill="none" stroke="#c0c0c0" d="M980.2188,-2593.8948C980.2188,-2593.8948 1362.4926,-2593.8948 1362.4926,-2593.8948 1368.4926,-2593.8948 1374.4926,-2599.8948 1374.4926,-2605.8948 1374.4926,-2605.8948 1374.4926,-2799.8948 1374.4926,-2799.8948 1374.4926,-2805.8948 1368.4926,-2811.8948 1362.4926,-2811.8948 1362.4926,-2811.8948 980.2188,-2811.8948 980.2188,-2811.8948 974.2188,-2811.8948 968.2188,-2805.8948 968.2188,-2799.8948 968.2188,-2799.8948 968.2188,-2605.8948 968.2188,-2605.8948 968.2188,-2599.8948 974.2188,-2593.8948 980.2188,-2593.8948"/>
<text text-anchor="middle" x="1171.3557" y="-2797.9948" font-family="Times,serif" font-size="11.00" fill="#c0c0c0">mahw17</text>
</g>
<g id="clust6" class="cluster">
<title>cluster_\mahw17\Dice</title>
<path fill="none" stroke="#c0c0c0" d="M988.2188,-2601.8948C988.2188,-2601.8948 1354.4926,-2601.8948 1354.4926,-2601.8948 1360.4926,-2601.8948 1366.4926,-2607.8948 1366.4926,-2613.8948 1366.4926,-2613.8948 1366.4926,-2770.8948 1366.4926,-2770.8948 1366.4926,-2776.8948 1360.4926,-2782.8948 1354.4926,-2782.8948 1354.4926,-2782.8948 988.2188,-2782.8948 988.2188,-2782.8948 982.2188,-2782.8948 976.2188,-2776.8948 976.2188,-2770.8948 976.2188,-2770.8948 976.2188,-2613.8948 976.2188,-2613.8948 976.2188,-2607.8948 982.2188,-2601.8948 988.2188,-2601.8948"/>
<text text-anchor="middle" x="1171.3557" y="-2768.9948" font-family="Times,serif" font-size="11.00" fill="#c0c0c0">Dice</text>
</g>
<g id="clust7" class="cluster">
<title>cluster_\Anax</title>
<path fill="none" stroke="#c0c0c0" d="M28,-122.8948C28,-122.8948 1359.1932,-122.8948 1359.1932,-122.8948 1365.1932,-122.8948 1371.1932,-128.8948 1371.1932,-134.8948 1371.1932,-134.8948 1371.1932,-2573.8948 1371.1932,-2573.8948 1371.1932,-2579.8948 1365.1932,-2585.8948 1359.1932,-2585.8948 1359.1932,-2585.8948 28,-2585.8948 28,-2585.8948 22,-2585.8948 16,-2579.8948 16,-2573.8948 16,-2573.8948 16,-134.8948 16,-134.8948 16,-128.8948 22,-122.8948 28,-122.8948"/>
<text text-anchor="middle" x="693.5966" y="-2571.9948" font-family="Times,serif" font-size="11.00" fill="#c0c0c0">Anax</text>
</g>
<g id="clust8" class="cluster">
<title>cluster_\Anax\Page</title>
<path fill="none" stroke="#c0c0c0" d="M709.1318,-2213.8948C709.1318,-2213.8948 1138.0952,-2213.8948 1138.0952,-2213.8948 1144.0952,-2213.8948 1150.0952,-2219.8948 1150.0952,-2225.8948 1150.0952,-2225.8948 1150.0952,-2544.8948 1150.0952,-2544.8948 1150.0952,-2550.8948 1144.0952,-2556.8948 1138.0952,-2556.8948 1138.0952,-2556.8948 709.1318,-2556.8948 709.1318,-2556.8948 703.1318,-2556.8948 697.1318,-2550.8948 697.1318,-2544.8948 697.1318,-2544.8948 697.1318,-2225.8948 697.1318,-2225.8948 697.1318,-2219.8948 703.1318,-2213.8948 709.1318,-2213.8948"/>
<text text-anchor="middle" x="923.6135" y="-2542.9948" font-family="Times,serif" font-size="11.00" fill="#c0c0c0">Page</text>
</g>
<g id="clust9" class="cluster">
<title>cluster_\Anax\App</title>
<path fill="none" stroke="#c0c0c0" d="M752.8213,-1590.8948C752.8213,-1590.8948 1337.9954,-1590.8948 1337.9954,-1590.8948 1343.9954,-1590.8948 1349.9954,-1596.8948 1349.9954,-1602.8948 1349.9954,-1602.8948 1349.9954,-1651.8948 1349.9954,-1651.8948 1349.9954,-1657.8948 1343.9954,-1663.8948 1337.9954,-1663.8948 1337.9954,-1663.8948 752.8213,-1663.8948 752.8213,-1663.8948 746.8213,-1663.8948 740.8213,-1657.8948 740.8213,-1651.8948 740.8213,-1651.8948 740.8213,-1602.8948 740.8213,-1602.8948 740.8213,-1596.8948 746.8213,-1590.8948 752.8213,-1590.8948"/>
<text text-anchor="middle" x="1045.4084" y="-1649.9948" font-family="Times,serif" font-size="11.00" fill="#c0c0c0">App</text>
</g>
<g id="clust10" class="cluster">
<title>cluster_\Anax\Common</title>
<path fill="none" stroke="#c0c0c0" d="M699.2334,-589.8948C699.2334,-589.8948 852.4093,-589.8948 852.4093,-589.8948 858.4093,-589.8948 864.4093,-595.8948 864.4093,-601.8948 864.4093,-601.8948 864.4093,-866.8948 864.4093,-866.8948 864.4093,-872.8948 858.4093,-878.8948 852.4093,-878.8948 852.4093,-878.8948 699.2334,-878.8948 699.2334,-878.8948 693.2334,-878.8948 687.2334,-872.8948 687.2334,-866.8948 687.2334,-866.8948 687.2334,-601.8948 687.2334,-601.8948 687.2334,-595.8948 693.2334,-589.8948 699.2334,-589.8948"/>
<text text-anchor="middle" x="775.8213" y="-864.9948" font-family="Times,serif" font-size="11.00" fill="#c0c0c0">Common</text>
</g>
<g id="clust11" class="cluster">
<title>cluster_\Anax\Configure</title>
<path fill="none" stroke="#c0c0c0" d="M229.5824,-677.8948C229.5824,-677.8948 356.3626,-677.8948 356.3626,-677.8948 362.3626,-677.8948 368.3626,-683.8948 368.3626,-689.8948 368.3626,-689.8948 368.3626,-900.8948 368.3626,-900.8948 368.3626,-906.8948 362.3626,-912.8948 356.3626,-912.8948 356.3626,-912.8948 229.5824,-912.8948 229.5824,-912.8948 223.5824,-912.8948 217.5824,-906.8948 217.5824,-900.8948 217.5824,-900.8948 217.5824,-689.8948 217.5824,-689.8948 217.5824,-683.8948 223.5824,-677.8948 229.5824,-677.8948"/>
<text text-anchor="middle" x="292.9725" y="-898.9948" font-family="Times,serif" font-size="11.00" fill="#c0c0c0">Configure</text>
</g>
<g id="clust12" class="cluster">
<title>cluster_\Anax\DI</title>
<path fill="none" stroke="#c0c0c0" d="M52.4973,-1671.8948C52.4973,-1671.8948 855.7087,-1671.8948 855.7087,-1671.8948 861.7087,-1671.8948 867.7087,-1677.8948 867.7087,-1683.8948 867.7087,-1683.8948 867.7087,-2193.8948 867.7087,-2193.8948 867.7087,-2199.8948 861.7087,-2205.8948 855.7087,-2205.8948 855.7087,-2205.8948 52.4973,-2205.8948 52.4973,-2205.8948 46.4973,-2205.8948 40.4973,-2199.8948 40.4973,-2193.8948 40.4973,-2193.8948 40.4973,-1683.8948 40.4973,-1683.8948 40.4973,-1677.8948 46.4973,-1671.8948 52.4973,-1671.8948"/>
<text text-anchor="middle" x="454.103" y="-2191.9948" font-family="Times,serif" font-size="11.00" fill="#c0c0c0">DI</text>
</g>
<g id="clust13" class="cluster">
<title>cluster_\Anax\DI\Exception</title>
<path fill="none" stroke="#c0c0c0" d="M436.3626,-2049.8948C436.3626,-2049.8948 835.912,-2049.8948 835.912,-2049.8948 841.912,-2049.8948 847.912,-2055.8948 847.912,-2061.8948 847.912,-2061.8948 847.912,-2164.8948 847.912,-2164.8948 847.912,-2170.8948 841.912,-2176.8948 835.912,-2176.8948 835.912,-2176.8948 436.3626,-2176.8948 436.3626,-2176.8948 430.3626,-2176.8948 424.3626,-2170.8948 424.3626,-2164.8948 424.3626,-2164.8948 424.3626,-2061.8948 424.3626,-2061.8948 424.3626,-2055.8948 430.3626,-2049.8948 436.3626,-2049.8948"/>
<text text-anchor="middle" x="636.1373" y="-2162.9948" font-family="Times,serif" font-size="11.00" fill="#c0c0c0">Exception</text>
</g>
<g id="clust14" class="cluster">
<title>cluster_\Anax\Request</title>
<path fill="none" stroke="#c0c0c0" d="M1273.9047,-1266.8948C1273.9047,-1266.8948 1328.097,-1266.8948 1328.097,-1266.8948 1334.097,-1266.8948 1340.097,-1272.8948 1340.097,-1278.8948 1340.097,-1278.8948 1340.097,-1327.8948 1340.097,-1327.8948 1340.097,-1333.8948 1334.097,-1339.8948 1328.097,-1339.8948 1328.097,-1339.8948 1273.9047,-1339.8948 1273.9047,-1339.8948 1267.9047,-1339.8948 1261.9047,-1333.8948 1261.9047,-1327.8948 1261.9047,-1327.8948 1261.9047,-1278.8948 1261.9047,-1278.8948 1261.9047,-1272.8948 1267.9047,-1266.8948 1273.9047,-1266.8948"/>
<text text-anchor="middle" x="1301.0009" y="-1325.9948" font-family="Times,serif" font-size="11.00" fill="#c0c0c0">Request</text>
</g>
<g id="clust15" class="cluster">
<title>cluster_\Anax\Response</title>
<path fill="none" stroke="#c0c0c0" d="M745.4257,-1455.8948C745.4257,-1455.8948 1105.1007,-1455.8948 1105.1007,-1455.8948 1111.1007,-1455.8948 1117.1007,-1461.8948 1117.1007,-1467.8948 1117.1007,-1467.8948 1117.1007,-1570.8948 1117.1007,-1570.8948 1117.1007,-1576.8948 1111.1007,-1582.8948 1105.1007,-1582.8948 1105.1007,-1582.8948 745.4257,-1582.8948 745.4257,-1582.8948 739.4257,-1582.8948 733.4257,-1576.8948 733.4257,-1570.8948 733.4257,-1570.8948 733.4257,-1467.8948 733.4257,-1467.8948 733.4257,-1461.8948 739.4257,-1455.8948 745.4257,-1455.8948"/>
<text text-anchor="middle" x="925.2632" y="-1568.9948" font-family="Times,serif" font-size="11.00" fill="#c0c0c0">Response</text>
</g>
<g id="clust16" class="cluster">
<title>cluster_\Anax\Route</title>
<path fill="none" stroke="#c0c0c0" d="M967.021,-1023.8948C967.021,-1023.8948 1136.1968,-1023.8948 1136.1968,-1023.8948 1142.1968,-1023.8948 1148.1968,-1029.8948 1148.1968,-1035.8948 1148.1968,-1035.8948 1148.1968,-1435.8948 1148.1968,-1435.8948 1148.1968,-1441.8948 1142.1968,-1447.8948 1136.1968,-1447.8948 1136.1968,-1447.8948 967.021,-1447.8948 967.021,-1447.8948 961.021,-1447.8948 955.021,-1441.8948 955.021,-1435.8948 955.021,-1435.8948 955.021,-1035.8948 955.021,-1035.8948 955.021,-1029.8948 961.021,-1023.8948 967.021,-1023.8948"/>
<text text-anchor="middle" x="1051.6089" y="-1433.9948" font-family="Times,serif" font-size="11.00" fill="#c0c0c0">Route</text>
</g>
<g id="clust17" class="cluster">
<title>cluster_\Anax\Route\Exception</title>
<path fill="none" stroke="#c0c0c0" d="M975.021,-1031.8948C975.021,-1031.8948 1128.1968,-1031.8948 1128.1968,-1031.8948 1134.1968,-1031.8948 1140.1968,-1037.8948 1140.1968,-1043.8948 1140.1968,-1043.8948 1140.1968,-1254.8948 1140.1968,-1254.8948 1140.1968,-1260.8948 1134.1968,-1266.8948 1128.1968,-1266.8948 1128.1968,-1266.8948 975.021,-1266.8948 975.021,-1266.8948 969.021,-1266.8948 963.021,-1260.8948 963.021,-1254.8948 963.021,-1254.8948 963.021,-1043.8948 963.021,-1043.8948 963.021,-1037.8948 969.021,-1031.8948 975.021,-1031.8948"/>
<text text-anchor="middle" x="1051.6089" y="-1252.9948" font-family="Times,serif" font-size="11.00" fill="#c0c0c0">Exception</text>
</g>
<g id="clust18" class="cluster">
<title>cluster_\Anax\Session</title>
<path fill="none" stroke="#c0c0c0" d="M36,-920.8948C36,-920.8948 592.8378,-920.8948 592.8378,-920.8948 598.8378,-920.8948 604.8378,-926.8948 604.8378,-932.8948 604.8378,-932.8948 604.8378,-981.8948 604.8378,-981.8948 604.8378,-987.8948 598.8378,-993.8948 592.8378,-993.8948 592.8378,-993.8948 36,-993.8948 36,-993.8948 30,-993.8948 24,-987.8948 24,-981.8948 24,-981.8948 24,-932.8948 24,-932.8948 24,-926.8948 30,-920.8948 36,-920.8948"/>
<text text-anchor="middle" x="314.4189" y="-979.9948" font-family="Times,serif" font-size="11.00" fill="#c0c0c0">Session</text>
</g>
<g id="clust19" class="cluster">
<title>cluster_\Anax\TextFilter</title>
<path fill="none" stroke="#c0c0c0" d="M990.1172,-589.8948C990.1172,-589.8948 1351.1932,-589.8948 1351.1932,-589.8948 1357.1932,-589.8948 1363.1932,-595.8948 1363.1932,-601.8948 1363.1932,-601.8948 1363.1932,-1003.8948 1363.1932,-1003.8948 1363.1932,-1009.8948 1357.1932,-1015.8948 1351.1932,-1015.8948 1351.1932,-1015.8948 990.1172,-1015.8948 990.1172,-1015.8948 984.1172,-1015.8948 978.1172,-1009.8948 978.1172,-1003.8948 978.1172,-1003.8948 978.1172,-601.8948 978.1172,-601.8948 978.1172,-595.8948 984.1172,-589.8948 990.1172,-589.8948"/>
<text text-anchor="middle" x="1170.6552" y="-1001.9948" font-family="Times,serif" font-size="11.00" fill="#c0c0c0">TextFilter</text>
</g>
<g id="clust20" class="cluster">
<title>cluster_\Anax\TextFilter\Filter</title>
<path fill="none" stroke="#c0c0c0" d="M998.1172,-805.8948C998.1172,-805.8948 1341.2948,-805.8948 1341.2948,-805.8948 1347.2948,-805.8948 1353.2948,-811.8948 1353.2948,-817.8948 1353.2948,-817.8948 1353.2948,-974.8948 1353.2948,-974.8948 1353.2948,-980.8948 1347.2948,-986.8948 1341.2948,-986.8948 1341.2948,-986.8948 998.1172,-986.8948 998.1172,-986.8948 992.1172,-986.8948 986.1172,-980.8948 986.1172,-974.8948 986.1172,-974.8948 986.1172,-817.8948 986.1172,-817.8948 986.1172,-811.8948 992.1172,-805.8948 998.1172,-805.8948"/>
<text text-anchor="middle" x="1169.706" y="-972.9948" font-family="Times,serif" font-size="11.00" fill="#c0c0c0">Filter</text>
</g>
<g id="clust21" class="cluster">
<title>cluster_\Anax\Url</title>
<path fill="none" stroke="#c0c0c0" d="M492.4533,-751.8948C492.4533,-751.8948 559.8434,-751.8948 559.8434,-751.8948 565.8434,-751.8948 571.8434,-757.8948 571.8434,-763.8948 571.8434,-763.8948 571.8434,-866.8948 571.8434,-866.8948 571.8434,-872.8948 565.8434,-878.8948 559.8434,-878.8948 559.8434,-878.8948 492.4533,-878.8948 492.4533,-878.8948 486.4533,-878.8948 480.4533,-872.8948 480.4533,-866.8948 480.4533,-866.8948 480.4533,-763.8948 480.4533,-763.8948 480.4533,-757.8948 486.4533,-751.8948 492.4533,-751.8948"/>
<text text-anchor="middle" x="526.1483" y="-864.9948" font-family="Times,serif" font-size="11.00" fill="#c0c0c0">Url</text>
</g>
<g id="clust22" class="cluster">
<title>cluster_\Anax\View</title>
<path fill="none" stroke="#c0c0c0" d="M695.934,-130.8948C695.934,-130.8948 1105.1007,-130.8948 1105.1007,-130.8948 1111.1007,-130.8948 1117.1007,-136.8948 1117.1007,-142.8948 1117.1007,-142.8948 1117.1007,-569.8948 1117.1007,-569.8948 1117.1007,-575.8948 1111.1007,-581.8948 1105.1007,-581.8948 1105.1007,-581.8948 695.934,-581.8948 695.934,-581.8948 689.934,-581.8948 683.934,-575.8948 683.934,-569.8948 683.934,-569.8948 683.934,-142.8948 683.934,-142.8948 683.934,-136.8948 689.934,-130.8948 695.934,-130.8948"/>
<text text-anchor="middle" x="900.5173" y="-567.9948" font-family="Times,serif" font-size="11.00" fill="#c0c0c0">View</text>
</g>
<!-- \\Mahw17\\Dice\\Dice -->
<g id="node1" class="node">
<title>\\Mahw17\\Dice\\Dice</title>
<polygon fill="none" stroke="#000000" points="1078.6089,-3060.8948 1024.6089,-3060.8948 1024.6089,-3024.8948 1078.6089,-3024.8948 1078.6089,-3060.8948"/>
<text text-anchor="middle" x="1051.6089" y="-3039.5948" font-family="Courier,monospace" font-size="11.00" fill="#000000">Dice</text>
</g>
<!-- \\Mahw17\\Dice\\DiceGraphic -->
<g id="node2" class="node">
<title>\\Mahw17\\Dice\\DiceGraphic</title>
<polygon fill="none" stroke="#000000" points="1345.0897,-3060.8948 1256.912,-3060.8948 1256.912,-3024.8948 1345.0897,-3024.8948 1345.0897,-3060.8948"/>
<text text-anchor="middle" x="1301.0009" y="-3039.5948" font-family="Courier,monospace" font-size="11.00" fill="#000000">DiceGraphic</text>
</g>
<!-- \\Mahw17\\Dice\\DiceGraphic&#45;&gt;\\Mahw17\\Dice\\Dice -->
<g id="edge1" class="edge">
<title>\\Mahw17\\Dice\\DiceGraphic&#45;&gt;\\Mahw17\\Dice\\Dice</title>
<path fill="none" stroke="#000000" d="M1256.702,-3042.8948C1209.0155,-3042.8948 1133.9828,-3042.8948 1089.1104,-3042.8948"/>
<polygon fill="none" stroke="#000000" points="1088.9295,-3039.3949 1078.9295,-3042.8948 1088.9294,-3046.3949 1088.9295,-3039.3949"/>
</g>
<!-- \\Mahw17\\Dice\\Game -->
<g id="node3" class="node">
<title>\\Mahw17\\Dice\\Game</title>
<polygon fill="none" stroke="#000000" points="1328.0009,-3006.8948 1274.0009,-3006.8948 1274.0009,-2970.8948 1328.0009,-2970.8948 1328.0009,-3006.8948"/>
<text text-anchor="middle" x="1301.0009" y="-2985.5948" font-family="Courier,monospace" font-size="11.00" fill="#000000">Game</text>
</g>
<!-- \\Mahw17\\Guess\\Guess -->
<g id="node4" class="node">
<title>\\Mahw17\\Guess\\Guess</title>
<polygon fill="none" stroke="#000000" points="1328.0009,-2925.8948 1274.0009,-2925.8948 1274.0009,-2889.8948 1328.0009,-2889.8948 1328.0009,-2925.8948"/>
<text text-anchor="middle" x="1301.0009" y="-2904.5948" font-family="Courier,monospace" font-size="11.00" fill="#000000">Guess</text>
</g>
<!-- \\Mahw17\\Guess\\GuessException -->
<g id="node5" class="node">
<title>\\Mahw17\\Guess\\GuessException</title>
<polygon fill="none" stroke="#000000" points="1355.3862,-2871.8948 1246.6156,-2871.8948 1246.6156,-2835.8948 1355.3862,-2835.8948 1355.3862,-2871.8948"/>
<text text-anchor="middle" x="1301.0009" y="-2850.5948" font-family="Courier,monospace" font-size="11.00" fill="#000000">GuessException</text>
</g>
<!-- \\Exception -->
<g id="node78" class="node">
<title>\\Exception</title>
<ellipse fill="none" stroke="#000000" cx="292.9725" cy="-88.8948" rx="52.7488" ry="18"/>
<text text-anchor="middle" x="292.9725" y="-84.6948" font-family="Times,serif" font-size="14.00" fill="#c0c0c0">\Exception</text>
</g>
<!-- \\Mahw17\\Guess\\GuessException&#45;&gt;\\Exception -->
<g id="edge4" class="edge">
<title>\\Mahw17\\Guess\\GuessException&#45;&gt;\\Exception</title>
<path fill="none" stroke="#000000" d="M1276.9236,-2835.6209C1262.9984,-2823.5038 1246.7103,-2806.2969 1238.8086,-2786.8948 1183.0521,-2649.988 1275.5095,-231.9479 1171.5091,-126.8948 1109.608,-64.367 863.807,-112.8753 775.8213,-112.8948"/>
</g>
<!-- \\mahw17\\Dice\\DiceHistogram2 -->
<g id="node6" class="node">
<title>\\mahw17\\Dice\\DiceHistogram2</title>
<polygon fill="none" stroke="#000000" points="1355.3862,-2753.8948 1246.6156,-2753.8948 1246.6156,-2717.8948 1355.3862,-2717.8948 1355.3862,-2753.8948"/>
<text text-anchor="middle" x="1301.0009" y="-2732.5948" font-family="Courier,monospace" font-size="11.00" fill="#000000">DiceHistogram2</text>
</g>
<!-- \\mahw17\\Dice\\HistogramInterface -->
<g id="node8" class="node">
<title>\\mahw17\\Dice\\HistogramInterface</title>
<polygon fill="none" stroke="#000000" points="1118.8893,-2753.8948 984.3285,-2753.8948 984.3285,-2717.8948 1118.8893,-2717.8948 1118.8893,-2753.8948"/>
<text text-anchor="middle" x="1051.6089" y="-2732.5948" font-family="Courier,monospace" font-size="11.00" fill="#000000">HistogramInterface</text>
</g>
<!-- \\mahw17\\Dice\\DiceHistogram2&#45;&gt;\\mahw17\\Dice\\HistogramInterface -->
<g id="edge3" class="edge">
<title>\\mahw17\\Dice\\DiceHistogram2&#45;&gt;\\mahw17\\Dice\\HistogramInterface</title>
<path fill="none" stroke="#000000" stroke-dasharray="1,5" d="M1246.5789,-2735.8948C1212.2404,-2735.8948 1167.3454,-2735.8948 1129.2931,-2735.8948"/>
<polygon fill="none" stroke="#000000" points="1129.2682,-2732.3949 1119.2682,-2735.8948 1129.2681,-2739.3949 1129.2682,-2732.3949"/>
</g>
<!-- \\mahw17\\Dice\\DiceGraphic -->
<g id="node77" class="node">
<title>\\mahw17\\Dice\\DiceGraphic</title>
<ellipse fill="none" stroke="#000000" cx="1051.6089" cy="-58.8948" rx="119.8005" ry="18"/>
<text text-anchor="middle" x="1051.6089" y="-54.6948" font-family="Times,serif" font-size="14.00" fill="#c0c0c0">\mahw17\Dice\DiceGraphic</text>
</g>
<!-- \\mahw17\\Dice\\DiceHistogram2&#45;&gt;\\mahw17\\Dice\\DiceGraphic -->
<g id="edge2" class="edge">
<title>\\mahw17\\Dice\\DiceHistogram2&#45;&gt;\\mahw17\\Dice\\DiceGraphic</title>
<path fill="none" stroke="#000000" d="M1246.8575,-2717.6821C1243.7873,-2715.1253 1241.0467,-2712.2126 1238.8086,-2708.8948 1076.0811,-2467.6645 1351.7145,-319.3642 1171.5091,-90.8948 1166.4901,-84.5315 1160.3571,-79.3473 1153.5461,-75.1331"/>
<polygon fill="none" stroke="#000000" points="1155.0512,-71.9683 1144.5888,-70.2982 1151.7262,-78.1282 1155.0512,-71.9683"/>
</g>
<!-- \\mahw17\\Dice\\Histogram -->
<g id="node7" class="node">
<title>\\mahw17\\Dice\\Histogram</title>
<polygon fill="none" stroke="#000000" points="1338.892,-2699.8948 1263.1098,-2699.8948 1263.1098,-2663.8948 1338.892,-2663.8948 1338.892,-2699.8948"/>
<text text-anchor="middle" x="1301.0009" y="-2678.5948" font-family="Courier,monospace" font-size="11.00" fill="#000000">Histogram</text>
</g>
<!-- \\mahw17\\Dice\\HistogramTrait2 -->
<g id="node9" class="node">
<title>\\mahw17\\Dice\\HistogramTrait2</title>
<polygon fill="none" stroke="#000000" points="1358.4844,-2645.8948 1243.5174,-2645.8948 1243.5174,-2609.8948 1358.4844,-2609.8948 1358.4844,-2645.8948"/>
<text text-anchor="middle" x="1301.0009" y="-2624.5948" font-family="Courier,monospace" font-size="11.00" fill="#000000">HistogramTrait2</text>
</g>
<!-- \\Anax\\Page\\DebugController -->
<g id="node10" class="node">
<title>\\Anax\\Page\\DebugController</title>
<polygon fill="none" stroke="#000000" points="1109.0924,-2365.8948 994.1254,-2365.8948 994.1254,-2329.8948 1109.0924,-2329.8948 1109.0924,-2365.8948"/>
<text text-anchor="middle" x="1051.6089" y="-2344.5948" font-family="Courier,monospace" font-size="11.00" fill="#000000">DebugController</text>
</g>
<!-- \\Anax\\DI\\InjectionAwareInterface -->
<g id="node39" class="node">
<title>\\Anax\\DI\\InjectionAwareInterface</title>
<polygon fill="none" stroke="#000000" points="859.5962,-1931.8948 692.0465,-1931.8948 692.0465,-1895.8948 859.5962,-1895.8948 859.5962,-1931.8948"/>
<text text-anchor="middle" x="775.8213" y="-1910.5948" font-family="Courier,monospace" font-size="11.00" fill="#000000">InjectionAwareInterface</text>
</g>
<!-- \\Anax\\Page\\DebugController&#45;&gt;\\Anax\\DI\\InjectionAwareInterface -->
<g id="edge5" class="edge">
<title>\\Anax\\Page\\DebugController&#45;&gt;\\Anax\\DI\\InjectionAwareInterface</title>
<path fill="none" stroke="#000000" stroke-dasharray="1,5" d="M993.9173,-2348.0763C971.5882,-2345.1171 947.6256,-2337.706 931.7087,-2320.8948 813.9575,-2196.5276 981.4012,-2068.9828 867.7087,-1940.8948 866.9637,-1940.0554 866.194,-1939.2415 865.4016,-1938.4524"/>
<polygon fill="none" stroke="#000000" points="867.6153,-1935.741 857.7039,-1931.9973 863.1174,-1941.1047 867.6153,-1935.741"/>
</g>
<!-- \\Anax\\Page\\ErrorController -->
<g id="node11" class="node">
<title>\\Anax\\Page\\ErrorController</title>
<polygon fill="none" stroke="#000000" points="1109.0924,-2311.8948 994.1254,-2311.8948 994.1254,-2275.8948 1109.0924,-2275.8948 1109.0924,-2311.8948"/>
<text text-anchor="middle" x="1051.6089" y="-2290.5948" font-family="Courier,monospace" font-size="11.00" fill="#000000">ErrorController</text>
</g>
<!-- \\Anax\\Page\\ErrorController&#45;&gt;\\Anax\\DI\\InjectionAwareInterface -->
<g id="edge6" class="edge">
<title>\\Anax\\Page\\ErrorController&#45;&gt;\\Anax\\DI\\InjectionAwareInterface</title>
<path fill="none" stroke="#000000" stroke-dasharray="1,5" d="M993.8335,-2293.8192C971.627,-2290.7995 947.7767,-2283.4131 931.7087,-2266.8948 828.7539,-2161.0544 967.208,-2049.99 867.7087,-1940.8948 866.9524,-1940.0655 866.1721,-1939.2612 865.3696,-1938.4812"/>
<polygon fill="none" stroke="#000000" points="867.5444,-1935.7382 857.5958,-1932.0946 863.1008,-1941.147 867.5444,-1935.7382"/>
</g>
<!-- \\Anax\\Page\\FlatFileContentController -->
<g id="node12" class="node">
<title>\\Anax\\Page\\FlatFileContentController</title>
<polygon fill="none" stroke="#000000" points="1142.0814,-2257.8948 961.1364,-2257.8948 961.1364,-2221.8948 1142.0814,-2221.8948 1142.0814,-2257.8948"/>
<text text-anchor="middle" x="1051.6089" y="-2236.5948" font-family="Courier,monospace" font-size="11.00" fill="#000000">FlatFileContentController</text>
</g>
<!-- \\Anax\\Page\\FlatFileContentController&#45;&gt;\\Anax\\DI\\InjectionAwareInterface -->
<g id="edge7" class="edge">
<title>\\Anax\\Page\\FlatFileContentController&#45;&gt;\\Anax\\DI\\InjectionAwareInterface</title>
<path fill="none" stroke="#000000" stroke-dasharray="1,5" d="M1045.6511,-2221.5574C1027.7197,-2169.3037 969.1476,-2018.4242 867.7087,-1940.8948 866.0739,-1939.6453 864.3824,-1938.4535 862.6436,-1937.3168"/>
<polygon fill="none" stroke="#000000" points="864.0057,-1934.0612 853.5978,-1932.0796 860.4984,-1940.1191 864.0057,-1934.0612"/>
</g>
<!-- \\Anax\\Page\\Page -->
<g id="node13" class="node">
<title>\\Anax\\Page\\Page</title>
<polygon fill="none" stroke="#000000" points="1078.6089,-2473.8948 1024.6089,-2473.8948 1024.6089,-2437.8948 1078.6089,-2437.8948 1078.6089,-2473.8948"/>
<text text-anchor="middle" x="1051.6089" y="-2452.5948" font-family="Courier,monospace" font-size="11.00" fill="#000000">Page</text>
</g>
<!-- \\Anax\\Page\\Page&#45;&gt;\\Anax\\DI\\InjectionAwareInterface -->
<g id="edge8" class="edge">
<title>\\Anax\\Page\\Page&#45;&gt;\\Anax\\DI\\InjectionAwareInterface</title>
<path fill="none" stroke="#000000" stroke-dasharray="1,5" d="M1024.4094,-2457.9734C996.8368,-2458.4552 955.0126,-2454.4243 931.7087,-2428.8948 784.2345,-2267.336 1009.9134,-2107.1106 867.7087,-1940.8948 867.0939,-1940.1762 866.4611,-1939.4762 865.8114,-1938.7944"/>
<polygon fill="none" stroke="#000000" points="868.0772,-1936.1262 858.2523,-1932.1612 863.4602,-1941.3877 868.0772,-1936.1262"/>
</g>
<!-- \\Anax\\Page\\DevelopController -->
<g id="node14" class="node">
<title>\\Anax\\Page\\DevelopController</title>
<polygon fill="none" stroke="#000000" points="1115.7903,-2419.8948 987.4275,-2419.8948 987.4275,-2383.8948 1115.7903,-2383.8948 1115.7903,-2419.8948"/>
<text text-anchor="middle" x="1051.6089" y="-2398.5948" font-family="Courier,monospace" font-size="11.00" fill="#000000">DevelopController</text>
</g>
<!-- \\Anax\\Page\\DevelopController&#45;&gt;\\Anax\\DI\\InjectionAwareInterface -->
<g id="edge24" class="edge">
<title>\\Anax\\Page\\DevelopController&#45;&gt;\\Anax\\DI\\InjectionAwareInterface</title>
<path fill="none" stroke="#000000" stroke-dasharray="1,5" d="M987.2193,-2401.2547C966.8331,-2397.7751 945.9293,-2390.2253 931.7087,-2374.8948 799.1123,-2231.9493 995.6416,-2088.0287 867.7087,-1940.8948 866.9723,-1940.0478 866.2108,-1939.2268 865.4261,-1938.4308"/>
<polygon fill="none" stroke="#000000" points="867.6692,-1935.7438 857.7867,-1931.9245 863.1305,-1941.073 867.6692,-1935.7438"/>
</g>
<!-- \\Anax\\Page\\PageRender -->
<g id="node15" class="node">
<title>\\Anax\\Page\\PageRender</title>
<polygon fill="none" stroke="#000000" points="1092.5979,-2527.8948 1010.6199,-2527.8948 1010.6199,-2491.8948 1092.5979,-2491.8948 1092.5979,-2527.8948"/>
<text text-anchor="middle" x="1051.6089" y="-2506.5948" font-family="Courier,monospace" font-size="11.00" fill="#000000">PageRender</text>
</g>
<!-- \\Anax\\Page\\PageRenderInterface -->
<g id="node16" class="node">
<title>\\Anax\\Page\\PageRenderInterface</title>
<polygon fill="none" stroke="#000000" points="846.701,-2527.8948 704.9417,-2527.8948 704.9417,-2491.8948 846.701,-2491.8948 846.701,-2527.8948"/>
<text text-anchor="middle" x="775.8213" y="-2506.5948" font-family="Courier,monospace" font-size="11.00" fill="#000000">PageRenderInterface</text>
</g>
<!-- \\Anax\\Page\\PageRender&#45;&gt;\\Anax\\Page\\PageRenderInterface -->
<g id="edge25" class="edge">
<title>\\Anax\\Page\\PageRender&#45;&gt;\\Anax\\Page\\PageRenderInterface</title>
<path fill="none" stroke="#000000" stroke-dasharray="1,5" d="M1010.6185,-2509.8948C970.2595,-2509.8948 907.5065,-2509.8948 857.026,-2509.8948"/>
<polygon fill="none" stroke="#000000" points="856.7788,-2506.3949 846.7788,-2509.8948 856.7787,-2513.3949 856.7788,-2506.3949"/>
</g>
<!-- \\Anax\\Page\\PageRender&#45;&gt;\\Anax\\DI\\InjectionAwareInterface -->
<g id="edge26" class="edge">
<title>\\Anax\\Page\\PageRender&#45;&gt;\\Anax\\DI\\InjectionAwareInterface</title>
<path fill="none" stroke="#000000" stroke-dasharray="1,5" d="M1010.3667,-2511.8815C983.9992,-2510.7711 951.2056,-2504.5317 931.7087,-2482.8948 769.3339,-2302.6977 1024.2071,-2126.2182 867.7087,-1940.8948 867.0986,-1940.1722 866.4702,-1939.4685 865.8247,-1938.7831"/>
<polygon fill="none" stroke="#000000" points="868.109,-1936.1308 858.3036,-1932.1176 863.4661,-1941.3696 868.109,-1936.1308"/>
</g>
<!-- \\Anax\\App\\App -->
<g id="node17" class="node">
<title>\\Anax\\App\\App</title>
<polygon fill="none" stroke="#000000" points="802.8213,-1634.8948 748.8213,-1634.8948 748.8213,-1598.8948 802.8213,-1598.8948 802.8213,-1634.8948"/>
<text text-anchor="middle" x="775.8213" y="-1613.5948" font-family="Courier,monospace" font-size="11.00" fill="#000000">App</text>
</g>
<!-- \\Anax\\App\\AppDI -->
<g id="node18" class="node">
<title>\\Anax\\App\\AppDI</title>
<polygon fill="none" stroke="#000000" points="1078.6089,-1634.8948 1024.6089,-1634.8948 1024.6089,-1598.8948 1078.6089,-1598.8948 1078.6089,-1634.8948"/>
<text text-anchor="middle" x="1051.6089" y="-1613.5948" font-family="Courier,monospace" font-size="11.00" fill="#000000">AppDI</text>
</g>
<!-- \\Anax\\App\\AppDI&#45;&gt;\\Anax\\App\\App -->
<g id="edge11" class="edge">
<title>\\Anax\\App\\AppDI&#45;&gt;\\Anax\\App\\App</title>
<path fill="none" stroke="#000000" d="M1024.4106,-1616.8948C974.8767,-1616.8948 869.8762,-1616.8948 813.4917,-1616.8948"/>
<polygon fill="none" stroke="#000000" points="813.2236,-1613.3949 803.2236,-1616.8948 813.2236,-1620.3949 813.2236,-1613.3949"/>
</g>
<!-- \\Anax\\App\\AppDI&#45;&gt;\\Anax\\DI\\InjectionAwareInterface -->
<g id="edge12" class="edge">
<title>\\Anax\\App\\AppDI&#45;&gt;\\Anax\\DI\\InjectionAwareInterface</title>
<path fill="none" stroke="#000000" stroke-dasharray="1,5" d="M1044.4072,-1635.1886C1024.2795,-1683.9092 962.6179,-1817.7928 867.7087,-1886.8948 865.8521,-1888.2465 863.9283,-1889.5311 861.95,-1890.7516"/>
<polygon fill="none" stroke="#000000" points="860.0341,-1887.8112 852.9662,-1895.704 863.4135,-1893.9414 860.0341,-1887.8112"/>
</g>
<!-- \\Anax\\App\\AppDIMagic -->
<g id="node19" class="node">
<title>\\Anax\\App\\AppDIMagic</title>
<polygon fill="none" stroke="#000000" points="1341.9899,-1634.8948 1260.0119,-1634.8948 1260.0119,-1598.8948 1341.9899,-1598.8948 1341.9899,-1634.8948"/>
<text text-anchor="middle" x="1301.0009" y="-1613.5948" font-family="Courier,monospace" font-size="11.00" fill="#000000">AppDIMagic</text>
</g>
<!-- \\Anax\\App\\AppDIMagic&#45;&gt;\\Anax\\App\\AppDI -->
<g id="edge13" class="edge">
<title>\\Anax\\App\\AppDIMagic&#45;&gt;\\Anax\\App\\AppDI</title>
<path fill="none" stroke="#000000" d="M1259.8189,-1616.8948C1212.3292,-1616.8948 1134.9305,-1616.8948 1089.0725,-1616.8948"/>
<polygon fill="none" stroke="#000000" points="1088.9594,-1613.3949 1078.9593,-1616.8948 1088.9593,-1620.3949 1088.9594,-1613.3949"/>
</g>
<!-- \\Anax\\Common\\ConfigurationException -->
<g id="node20" class="node">
<title>\\Anax\\Common\\ConfigurationException</title>
<polygon fill="none" stroke="#000000" points="856.4972,-849.8948 695.1455,-849.8948 695.1455,-813.8948 856.4972,-813.8948 856.4972,-849.8948"/>
<text text-anchor="middle" x="775.8213" y="-828.5948" font-family="Courier,monospace" font-size="11.00" fill="#000000">ConfigurationException</text>
</g>
<!-- \\Anax\\Common\\ConfigurationException&#45;&gt;\\Exception -->
<g id="edge9" class="edge">
<title>\\Anax\\Common\\ConfigurationException&#45;&gt;\\Exception</title>
<path fill="none" stroke="#000000" d="M702.8624,-813.751C696.3027,-811.1443 689.8945,-808.2031 683.934,-804.8948 650.6298,-786.4097 654.2604,-764.4041 619.934,-747.8948 600.8807,-738.7311 534.0897,-751.489 526.1483,-731.8948"/>
</g>
<!-- \\Anax\\Common\\AppInjectableInterface -->
<g id="node21" class="node">
<title>\\Anax\\Common\\AppInjectableInterface</title>
<polygon fill="none" stroke="#000000" points="856.4972,-795.8948 695.1455,-795.8948 695.1455,-759.8948 856.4972,-759.8948 856.4972,-795.8948"/>
<text text-anchor="middle" x="775.8213" y="-774.5948" font-family="Courier,monospace" font-size="11.00" fill="#000000">AppInjectableInterface</text>
</g>
<!-- \\Anax\\Common\\ConfigureInterface -->
<g id="node22" class="node">
<title>\\Anax\\Common\\ConfigureInterface</title>
<polygon fill="none" stroke="#000000" points="843.1017,-741.8948 708.541,-741.8948 708.541,-705.8948 843.1017,-705.8948 843.1017,-741.8948"/>
<text text-anchor="middle" x="775.8213" y="-720.5948" font-family="Courier,monospace" font-size="11.00" fill="#000000">ConfigureInterface</text>
</g>
<!-- \\Anax\\Common\\AppInjectableTrait -->
<g id="node23" class="node">
<title>\\Anax\\Common\\AppInjectableTrait</title>
<polygon fill="none" stroke="#000000" points="843.1017,-687.8948 708.541,-687.8948 708.541,-651.8948 843.1017,-651.8948 843.1017,-687.8948"/>
<text text-anchor="middle" x="775.8213" y="-666.5948" font-family="Courier,monospace" font-size="11.00" fill="#000000">AppInjectableTrait</text>
</g>
<!-- \\Anax\\Common\\ConfigureTrait -->
<g id="node24" class="node">
<title>\\Anax\\Common\\ConfigureTrait</title>
<polygon fill="none" stroke="#000000" points="830.2066,-633.8948 721.4361,-633.8948 721.4361,-597.8948 830.2066,-597.8948 830.2066,-633.8948"/>
<text text-anchor="middle" x="775.8213" y="-612.5948" font-family="Courier,monospace" font-size="11.00" fill="#000000">ConfigureTrait</text>
</g>
<!-- \\Anax\\Configure\\Exception -->
<g id="node25" class="node">
<title>\\Anax\\Configure\\Exception</title>
<polygon fill="none" stroke="#000000" points="330.8636,-829.8948 255.0814,-829.8948 255.0814,-793.8948 330.8636,-793.8948 330.8636,-829.8948"/>
<text text-anchor="middle" x="292.9725" y="-808.5948" font-family="Courier,monospace" font-size="11.00" fill="#000000">Exception</text>
</g>
<!-- \\Anax\\Configure\\Exception&#45;&gt;\\Exception -->
<g id="edge10" class="edge">
<title>\\Anax\\Configure\\Exception&#45;&gt;\\Exception</title>
<path fill="none" stroke="#000000" d="M330.7258,-809.3459C353.7662,-805.6115 381.5535,-796.7324 396.3626,-775.8948 420.3068,-742.2032 399.9197,-724.0747 396.3626,-682.8948 377.3573,-462.8733 319.4565,-202.0669 299.678,-117.1349"/>
<polygon fill="none" stroke="#000000" points="303.0439,-116.1577 297.3555,-107.2195 296.2284,-117.7542 303.0439,-116.1577"/>
</g>
<!-- \\Anax\\Configure\\ConfigureInterface -->
<g id="node26" class="node">
<title>\\Anax\\Configure\\ConfigureInterface</title>
<polygon fill="none" stroke="#000000" points="360.2529,-883.8948 225.6921,-883.8948 225.6921,-847.8948 360.2529,-847.8948 360.2529,-883.8948"/>
<text text-anchor="middle" x="292.9725" y="-862.5948" font-family="Courier,monospace" font-size="11.00" fill="#000000">ConfigureInterface</text>
</g>
<!-- \\Anax\\Configure\\Configure2Trait -->
<g id="node27" class="node">
<title>\\Anax\\Configure\\Configure2Trait</title>
<polygon fill="none" stroke="#000000" points="350.456,-775.8948 235.489,-775.8948 235.489,-739.8948 350.456,-739.8948 350.456,-775.8948"/>
<text text-anchor="middle" x="292.9725" y="-754.5948" font-family="Courier,monospace" font-size="11.00" fill="#000000">Configure2Trait</text>
</g>
<!-- \\Anax\\Configure\\ConfigureTrait -->
<g id="node28" class="node">
<title>\\Anax\\Configure\\ConfigureTrait</title>
<polygon fill="none" stroke="#000000" points="347.3578,-721.8948 238.5872,-721.8948 238.5872,-685.8948 347.3578,-685.8948 347.3578,-721.8948"/>
<text text-anchor="middle" x="292.9725" y="-700.5948" font-family="Courier,monospace" font-size="11.00" fill="#000000">ConfigureTrait</text>
</g>
<!-- \\Anax\\DI\\Exception\\Exception -->
<g id="node29" class="node">
<title>\\Anax\\DI\\Exception\\Exception</title>
<polygon fill="none" stroke="#000000" points="813.7125,-2147.8948 737.9302,-2147.8948 737.9302,-2111.8948 813.7125,-2111.8948 813.7125,-2147.8948"/>
<text text-anchor="middle" x="775.8213" y="-2126.5948" font-family="Courier,monospace" font-size="11.00" fill="#000000">Exception</text>
</g>
<!-- \\Anax\\DI\\Exception\\DIExceptionInterface -->
<g id="node31" class="node">
<title>\\Anax\\DI\\Exception\\DIExceptionInterface</title>
<polygon fill="none" stroke="#000000" points="600.1263,-2147.8948 452.1703,-2147.8948 452.1703,-2111.8948 600.1263,-2111.8948 600.1263,-2147.8948"/>
<text text-anchor="middle" x="526.1483" y="-2126.5948" font-family="Courier,monospace" font-size="11.00" fill="#000000">DIExceptionInterface</text>
</g>
<!-- \\Anax\\DI\\Exception\\Exception&#45;&gt;\\Anax\\DI\\Exception\\DIExceptionInterface -->
<g id="edge21" class="edge">
<title>\\Anax\\DI\\Exception\\Exception&#45;&gt;\\Anax\\DI\\Exception\\DIExceptionInterface</title>
<path fill="none" stroke="#000000" stroke-dasharray="1,5" d="M737.9014,-2129.8948C704.1815,-2129.8948 653.6654,-2129.8948 610.4303,-2129.8948"/>
<polygon fill="none" stroke="#000000" points="610.1847,-2126.3949 600.1847,-2129.8948 610.1847,-2133.3949 610.1847,-2126.3949"/>
</g>
<!-- \\Anax\\DI\\Exception\\Exception&#45;&gt;\\Exception -->
<g id="edge20" class="edge">
<title>\\Anax\\DI\\Exception\\Exception&#45;&gt;\\Exception</title>
<path fill="none" stroke="#000000" d="M737.8864,-2128.6916C718.6308,-2125.9464 696.6741,-2119.1051 683.934,-2102.8948 590.7984,-1984.3903 719.8287,-860.7602 619.934,-747.8948 591.909,-716.2309 542.0311,-771.0832 526.1483,-731.8948"/>
</g>
<!-- \\Anax\\DI\\Exception\\NotFoundException -->
<g id="node30" class="node">
<title>\\Anax\\DI\\Exception\\NotFoundException</title>
<polygon fill="none" stroke="#000000" points="840.0028,-2093.8948 711.6399,-2093.8948 711.6399,-2057.8948 840.0028,-2057.8948 840.0028,-2093.8948"/>
<text text-anchor="middle" x="775.8213" y="-2072.5948" font-family="Courier,monospace" font-size="11.00" fill="#000000">NotFoundException</text>
</g>
<!-- \\Anax\\DI\\Exception\\NotFoundExceptionInterface -->
<g id="node32" class="node">
<title>\\Anax\\DI\\Exception\\NotFoundExceptionInterface</title>
<polygon fill="none" stroke="#000000" points="619.7202,-2093.8948 432.5764,-2093.8948 432.5764,-2057.8948 619.7202,-2057.8948 619.7202,-2093.8948"/>
<text text-anchor="middle" x="526.1483" y="-2072.5948" font-family="Courier,monospace" font-size="11.00" fill="#000000">NotFoundExceptionInterface</text>
</g>
<!-- \\Anax\\DI\\Exception\\NotFoundException&#45;&gt;\\Anax\\DI\\Exception\\NotFoundExceptionInterface -->
<g id="edge23" class="edge">
<title>\\Anax\\DI\\Exception\\NotFoundException&#45;&gt;\\Anax\\DI\\Exception\\NotFoundExceptionInterface</title>
<path fill="none" stroke="#000000" stroke-dasharray="1,5" d="M711.5243,-2075.8948C686.6887,-2075.8948 657.6351,-2075.8948 629.9948,-2075.8948"/>
<polygon fill="none" stroke="#000000" points="629.886,-2072.3949 619.886,-2075.8948 629.886,-2079.3949 629.886,-2072.3949"/>
</g>
<!-- \\Anax\\DI\\Exception\\NotFoundException&#45;&gt;\\Exception -->
<g id="edge22" class="edge">
<title>\\Anax\\DI\\Exception\\NotFoundException&#45;&gt;\\Exception</title>
<path fill="none" stroke="#000000" d="M711.4602,-2071.6181C700.8757,-2068.0575 691.0547,-2062.4806 683.934,-2053.8948 591.188,-1942.0646 716.3206,-856.6028 619.934,-747.8948 591.881,-716.2557 542.0311,-771.0832 526.1483,-731.8948"/>
</g>
<!-- \\Anax\\DI\\DI -->
<g id="node33" class="node">
<title>\\Anax\\DI\\DI</title>
<polygon fill="none" stroke="#000000" points="319.9725,-2012.8948 265.9725,-2012.8948 265.9725,-1976.8948 319.9725,-1976.8948 319.9725,-2012.8948"/>
<text text-anchor="middle" x="292.9725" y="-1991.5948" font-family="Courier,monospace" font-size="11.00" fill="#000000">DI</text>
</g>
<!-- \\Anax\\DI\\DIInterface -->
<g id="node38" class="node">
<title>\\Anax\\DI\\DIInterface</title>
<polygon fill="none" stroke="#000000" points="136.8801,-2012.8948 48.7023,-2012.8948 48.7023,-1976.8948 136.8801,-1976.8948 136.8801,-2012.8948"/>
<text text-anchor="middle" x="92.7912" y="-1991.5948" font-family="Courier,monospace" font-size="11.00" fill="#000000">DIInterface</text>
</g>
<!-- \\Anax\\DI\\DI&#45;&gt;\\Anax\\DI\\DIInterface -->
<g id="edge14" class="edge">
<title>\\Anax\\DI\\DI&#45;&gt;\\Anax\\DI\\DIInterface</title>
<path fill="none" stroke="#000000" stroke-dasharray="1,5" d="M265.5579,-1994.8948C235.3138,-1994.8948 185.8619,-1994.8948 147.5981,-1994.8948"/>
<polygon fill="none" stroke="#000000" points="147.1277,-1991.3949 137.1277,-1994.8948 147.1276,-1998.3949 147.1277,-1991.3949"/>
</g>
<!-- \\Anax\\DI\\DIFactoryConfig -->
<g id="node34" class="node">
<title>\\Anax\\DI\\DIFactoryConfig</title>
<polygon fill="none" stroke="#000000" points="583.6318,-1985.8948 468.6648,-1985.8948 468.6648,-1949.8948 583.6318,-1949.8948 583.6318,-1985.8948"/>
<text text-anchor="middle" x="526.1483" y="-1964.5948" font-family="Courier,monospace" font-size="11.00" fill="#000000">DIFactoryConfig</text>
</g>
<!-- \\Anax\\DI\\DIFactoryConfig&#45;&gt;\\Anax\\Configure\\ConfigureInterface -->
<g id="edge16" class="edge">
<title>\\Anax\\DI\\DIFactoryConfig&#45;&gt;\\Anax\\Configure\\ConfigureInterface</title>
<path fill="none" stroke="#000000" stroke-dasharray="1,5" d="M525.3861,-1949.5909C519.9044,-1824.85 483.3715,-1099.3125 368.3626,-916.8948 361.5132,-906.0308 351.4142,-896.9246 340.8194,-889.555"/>
<polygon fill="none" stroke="#000000" points="342.5648,-886.5155 332.2688,-884.0167 338.7593,-892.3908 342.5648,-886.5155"/>
</g>
<!-- \\Anax\\DI\\DIFactoryConfig&#45;&gt;\\Anax\\DI\\DI -->
<g id="edge15" class="edge">
<title>\\Anax\\DI\\DIFactoryConfig&#45;&gt;\\Anax\\DI\\DI</title>
<path fill="none" stroke="#000000" d="M468.5093,-1974.5689C425.4252,-1979.5577 367.7663,-1986.2342 330.494,-1990.55"/>
<polygon fill="none" stroke="#000000" points="329.6169,-1987.1281 320.0859,-1991.7552 330.4222,-1994.0817 329.6169,-1987.1281"/>
</g>
<!-- \\Anax\\DI\\DIFactoryConfigMagic -->
<g id="node35" class="node">
<title>\\Anax\\DI\\DIFactoryConfigMagic</title>
<polygon fill="none" stroke="#000000" points="849.7994,-2039.8948 701.8433,-2039.8948 701.8433,-2003.8948 849.7994,-2003.8948 849.7994,-2039.8948"/>
<text text-anchor="middle" x="775.8213" y="-2018.5948" font-family="Courier,monospace" font-size="11.00" fill="#000000">DIFactoryConfigMagic</text>
</g>
<!-- \\Anax\\DI\\DIFactoryConfigMagic&#45;&gt;\\Anax\\DI\\DIFactoryConfig -->
<g id="edge17" class="edge">
<title>\\Anax\\DI\\DIFactoryConfigMagic&#45;&gt;\\Anax\\DI\\DIFactoryConfig</title>
<path fill="none" stroke="#000000" d="M701.5872,-2005.8392C667.457,-1998.4574 627.2525,-1989.7619 593.9474,-1982.5585"/>
<polygon fill="none" stroke="#000000" points="594.3612,-1979.0672 583.8473,-1980.3741 592.8814,-1985.909 594.3612,-1979.0672"/>
</g>
<!-- \\Anax\\DI\\DIFactoryDefault -->
<g id="node36" class="node">
<title>\\Anax\\DI\\DIFactoryDefault</title>
<polygon fill="none" stroke="#000000" points="586.7314,-2039.8948 465.5652,-2039.8948 465.5652,-2003.8948 586.7314,-2003.8948 586.7314,-2039.8948"/>
<text text-anchor="middle" x="526.1483" y="-2018.5948" font-family="Courier,monospace" font-size="11.00" fill="#000000">DIFactoryDefault</text>
</g>
<!-- \\Anax\\DI\\DIFactoryDefault&#45;&gt;\\Anax\\DI\\DI -->
<g id="edge18" class="edge">
<title>\\Anax\\DI\\DIFactoryDefault&#45;&gt;\\Anax\\DI\\DI</title>
<path fill="none" stroke="#000000" d="M465.4928,-2014.8713C422.6301,-2009.9081 366.5491,-2003.4144 330.1487,-1999.1995"/>
<polygon fill="none" stroke="#000000" points="330.3124,-1995.6951 319.9762,-1998.0216 329.5072,-2002.6487 330.3124,-1995.6951"/>
</g>
<!-- \\Anax\\DI\\DIFactoryTest -->
<g id="node37" class="node">
<title>\\Anax\\DI\\DIFactoryTest</title>
<polygon fill="none" stroke="#000000" points="826.6073,-1985.8948 725.0354,-1985.8948 725.0354,-1949.8948 826.6073,-1949.8948 826.6073,-1985.8948"/>
<text text-anchor="middle" x="775.8213" y="-1964.5948" font-family="Courier,monospace" font-size="11.00" fill="#000000">DIFactoryTest</text>
</g>
<!-- \\Anax\\DI\\DIFactoryTest&#45;&gt;\\Anax\\DI\\DIFactoryConfig -->
<g id="edge19" class="edge">
<title>\\Anax\\DI\\DIFactoryTest&#45;&gt;\\Anax\\DI\\DIFactoryConfig</title>
<path fill="none" stroke="#000000" d="M724.9953,-1967.8948C687.2719,-1967.8948 635.4369,-1967.8948 594.1482,-1967.8948"/>
<polygon fill="none" stroke="#000000" points="593.8933,-1964.3949 583.8933,-1967.8948 593.8932,-1971.3949 593.8933,-1964.3949"/>
</g>
<!-- \\Anax\\DI\\DIMagicTrait -->
<g id="node40" class="node">
<title>\\Anax\\DI\\DIMagicTrait</title>
<polygon fill="none" stroke="#000000" points="823.5083,-1877.8948 728.1344,-1877.8948 728.1344,-1841.8948 823.5083,-1841.8948 823.5083,-1877.8948"/>
<text text-anchor="middle" x="775.8213" y="-1856.5948" font-family="Courier,monospace" font-size="11.00" fill="#000000">DIMagicTrait</text>
</g>
<!-- \\Anax\\DI\\DIServiceSetBaseTrait -->
<g id="node41" class="node">
<title>\\Anax\\DI\\DIServiceSetBaseTrait</title>
<polygon fill="none" stroke="#000000" points="852.8988,-1823.8948 698.7439,-1823.8948 698.7439,-1787.8948 852.8988,-1787.8948 852.8988,-1823.8948"/>
<text text-anchor="middle" x="775.8213" y="-1802.5948" font-family="Courier,monospace" font-size="11.00" fill="#000000">DIServiceSetBaseTrait</text>
</g>
<!-- \\Anax\\DI\\InjectionAwareTrait -->
<g id="node42" class="node">
<title>\\Anax\\DI\\InjectionAwareTrait</title>
<polygon fill="none" stroke="#000000" points="846.701,-1769.8948 704.9417,-1769.8948 704.9417,-1733.8948 846.701,-1733.8948 846.701,-1769.8948"/>
<text text-anchor="middle" x="775.8213" y="-1748.5948" font-family="Courier,monospace" font-size="11.00" fill="#000000">InjectionAwareTrait</text>
</g>
<!-- \\Anax\\DI\\InjectionMagicTrait -->
<g id="node43" class="node">
<title>\\Anax\\DI\\InjectionMagicTrait</title>
<polygon fill="none" stroke="#000000" points="846.701,-1715.8948 704.9417,-1715.8948 704.9417,-1679.8948 846.701,-1679.8948 846.701,-1715.8948"/>
<text text-anchor="middle" x="775.8213" y="-1694.5948" font-family="Courier,monospace" font-size="11.00" fill="#000000">InjectionMagicTrait</text>
</g>
<!-- \\Anax\\Request\\Request -->
<g id="node44" class="node">
<title>\\Anax\\Request\\Request</title>
<polygon fill="none" stroke="#000000" points="1332.1935,-1310.8948 1269.8083,-1310.8948 1269.8083,-1274.8948 1332.1935,-1274.8948 1332.1935,-1310.8948"/>
<text text-anchor="middle" x="1301.0009" y="-1289.5948" font-family="Courier,monospace" font-size="11.00" fill="#000000">Request</text>
</g>
<!-- \\Anax\\Response\\Exception -->
<g id="node45" class="node">
<title>\\Anax\\Response\\Exception</title>
<polygon fill="none" stroke="#000000" points="1089.5,-1499.8948 1013.7178,-1499.8948 1013.7178,-1463.8948 1089.5,-1463.8948 1089.5,-1499.8948"/>
<text text-anchor="middle" x="1051.6089" y="-1478.5948" font-family="Courier,monospace" font-size="11.00" fill="#000000">Exception</text>
</g>
<!-- \\Anax\\Response\\Exception&#45;&gt;\\Exception -->
<g id="edge27" class="edge">
<title>\\Anax\\Response\\Exception&#45;&gt;\\Exception</title>
<path fill="none" stroke="#000000" d="M1013.8083,-1483.3993C986.5457,-1482.246 951.2361,-1475.7026 931.7087,-1451.8948 838.235,-1337.9316 966.4322,-236.3416 867.7087,-126.8948 840.0394,-96.2201 817.1315,-112.8856 775.8213,-112.8948"/>
</g>
<!-- \\Anax\\Response\\Response -->
<g id="node46" class="node">
<title>\\Anax\\Response\\Response</title>
<polygon fill="none" stroke="#000000" points="810.1129,-1553.8948 741.5298,-1553.8948 741.5298,-1517.8948 810.1129,-1517.8948 810.1129,-1553.8948"/>
<text text-anchor="middle" x="775.8213" y="-1532.5948" font-family="Courier,monospace" font-size="11.00" fill="#000000">Response</text>
</g>
<!-- \\Anax\\Response\\ResponseUtility -->
<g id="node47" class="node">
<title>\\Anax\\Response\\ResponseUtility</title>
<polygon fill="none" stroke="#000000" points="1109.0924,-1553.8948 994.1254,-1553.8948 994.1254,-1517.8948 1109.0924,-1517.8948 1109.0924,-1553.8948"/>
<text text-anchor="middle" x="1051.6089" y="-1532.5948" font-family="Courier,monospace" font-size="11.00" fill="#000000">ResponseUtility</text>
</g>
<!-- \\Anax\\Response\\ResponseUtility&#45;&gt;\\Anax\\DI\\InjectionAwareInterface -->
<g id="edge29" class="edge">
<title>\\Anax\\Response\\ResponseUtility&#45;&gt;\\Anax\\DI\\InjectionAwareInterface</title>
<path fill="none" stroke="#000000" stroke-dasharray="1,5" d="M993.9225,-1548.2109C971.457,-1555.7991 947.3923,-1567.869 931.7087,-1586.8948 844.9899,-1692.0932 960.3986,-1786.9175 867.7087,-1886.8948 866.9457,-1887.7178 866.159,-1888.5162 865.3504,-1889.2907"/>
<polygon fill="none" stroke="#000000" points="863.091,-1886.6167 857.531,-1895.6354 867.5016,-1892.0524 863.091,-1886.6167"/>
</g>
<!-- \\Anax\\Response\\ResponseUtility&#45;&gt;\\Anax\\Response\\Response -->
<g id="edge28" class="edge">
<title>\\Anax\\Response\\ResponseUtility&#45;&gt;\\Anax\\Response\\Response</title>
<path fill="none" stroke="#000000" d="M993.7948,-1535.8948C942.2529,-1535.8948 867.8684,-1535.8948 820.6952,-1535.8948"/>
<polygon fill="none" stroke="#000000" points="820.4806,-1532.3949 810.4806,-1535.8948 820.4806,-1539.3949 820.4806,-1532.3949"/>
</g>
<!-- \\Anax\\Route\\Exception\\ConfigurationException -->
<g id="node48" class="node">
<title>\\Anax\\Route\\Exception\\ConfigurationException</title>
<polygon fill="none" stroke="#000000" points="1132.2848,-1237.8948 970.933,-1237.8948 970.933,-1201.8948 1132.2848,-1201.8948 1132.2848,-1237.8948"/>
<text text-anchor="middle" x="1051.6089" y="-1216.5948" font-family="Courier,monospace" font-size="11.00" fill="#000000">ConfigurationException</text>
</g>
<!-- \\Anax\\Route\\Exception\\ConfigurationException&#45;&gt;\\Exception -->
<g id="edge30" class="edge">
<title>\\Anax\\Route\\Exception\\ConfigurationException&#45;&gt;\\Exception</title>
<path fill="none" stroke="#000000" d="M970.8645,-1216.4208C955.8832,-1212.0559 941.7983,-1204.7615 931.7087,-1192.8948 777.9863,-1012.0964 1027.6894,-302.1796 867.7087,-126.8948 839.8604,-96.3825 817.1315,-112.8856 775.8213,-112.8948"/>
</g>
<!-- \\Anax\\Route\\Exception\\ForbiddenException -->
<g id="node49" class="node">
<title>\\Anax\\Route\\Exception\\ForbiddenException</title>
<polygon fill="none" stroke="#000000" points="1118.8893,-1183.8948 984.3285,-1183.8948 984.3285,-1147.8948 1118.8893,-1147.8948 1118.8893,-1183.8948"/>
<text text-anchor="middle" x="1051.6089" y="-1162.5948" font-family="Courier,monospace" font-size="11.00" fill="#000000">ForbiddenException</text>
</g>
<!-- \\Anax\\Route\\Exception\\ForbiddenException&#45;&gt;\\Exception -->
<g id="edge31" class="edge">
<title>\\Anax\\Route\\Exception\\ForbiddenException&#45;&gt;\\Exception</title>
<path fill="none" stroke="#000000" d="M984.2847,-1165.5322C964.5573,-1161.9297 944.7944,-1154.2356 931.7087,-1138.8948 785.4709,-967.4544 1019.8806,-293.0904 867.7087,-126.8948 839.8118,-96.4269 817.1315,-112.8856 775.8213,-112.8948"/>
</g>
<!-- \\Anax\\Route\\Exception\\InternalErrorException -->
<g id="node50" class="node">
<title>\\Anax\\Route\\Exception\\InternalErrorException</title>
<polygon fill="none" stroke="#000000" points="1132.2848,-1129.8948 970.933,-1129.8948 970.933,-1093.8948 1132.2848,-1093.8948 1132.2848,-1129.8948"/>
<text text-anchor="middle" x="1051.6089" y="-1108.5948" font-family="Courier,monospace" font-size="11.00" fill="#000000">InternalErrorException</text>
</g>
<!-- \\Anax\\Route\\Exception\\InternalErrorException&#45;&gt;\\Exception -->
<g id="edge32" class="edge">
<title>\\Anax\\Route\\Exception\\InternalErrorException&#45;&gt;\\Exception</title>
<path fill="none" stroke="#000000" d="M970.9257,-1108.3686C955.9403,-1104.0072 941.8382,-1096.7274 931.7087,-1084.8948 792.9543,-922.811 1012.0731,-284.0026 867.7087,-126.8948 839.7578,-96.4765 817.1315,-112.8856 775.8213,-112.8948"/>
</g>
<!-- \\Anax\\Route\\Exception\\NotFoundException -->
<g id="node51" class="node">
<title>\\Anax\\Route\\Exception\\NotFoundException</title>
<polygon fill="none" stroke="#000000" points="1115.7903,-1075.8948 987.4275,-1075.8948 987.4275,-1039.8948 1115.7903,-1039.8948 1115.7903,-1075.8948"/>
<text text-anchor="middle" x="1051.6089" y="-1054.5948" font-family="Courier,monospace" font-size="11.00" fill="#000000">NotFoundException</text>
</g>
<!-- \\Anax\\Route\\Exception\\NotFoundException&#45;&gt;\\Exception -->
<g id="edge33" class="edge">
<title>\\Anax\\Route\\Exception\\NotFoundException&#45;&gt;\\Exception</title>
<path fill="none" stroke="#000000" d="M994.7287,-1039.8013C971.2532,-1029.332 946.1944,-1013.6152 931.7087,-990.8948 828.2078,-828.5561 998.486,-268.1872 867.7087,-126.8948 839.6479,-96.5778 817.1315,-112.8856 775.8213,-112.8948"/>
</g>
<!-- \\Anax\\Route\\Route -->
<g id="node52" class="node">
<title>\\Anax\\Route\\Route</title>
<polygon fill="none" stroke="#000000" points="1078.6089,-1364.8948 1024.6089,-1364.8948 1024.6089,-1328.8948 1078.6089,-1328.8948 1078.6089,-1364.8948"/>
<text text-anchor="middle" x="1051.6089" y="-1343.5948" font-family="Courier,monospace" font-size="11.00" fill="#000000">Route</text>
</g>
<!-- \\Anax\\Route\\Router -->
<g id="node53" class="node">
<title>\\Anax\\Route\\Router</title>
<polygon fill="none" stroke="#000000" points="1079.2038,-1418.8948 1024.014,-1418.8948 1024.014,-1382.8948 1079.2038,-1382.8948 1079.2038,-1418.8948"/>
<text text-anchor="middle" x="1051.6089" y="-1397.5948" font-family="Courier,monospace" font-size="11.00" fill="#000000">Router</text>
</g>
<!-- \\Anax\\Route\\Router&#45;&gt;\\Anax\\Configure\\ConfigureInterface -->
<g id="edge35" class="edge">
<title>\\Anax\\Route\\Router&#45;&gt;\\Anax\\Configure\\ConfigureInterface</title>
<path fill="none" stroke="#000000" stroke-dasharray="1,5" d="M1023.6194,-1400.317C997.7418,-1398.5355 959.241,-1392.6015 931.7087,-1373.8948 728.3353,-1235.7135 817.7361,-1062.9398 619.934,-916.8948 584.8347,-890.9796 568.0243,-875.6491 526.1483,-887.8948"/>
</g>
<!-- \\Anax\\Route\\Router&#45;&gt;\\Anax\\DI\\InjectionAwareInterface -->
<g id="edge34" class="edge">
<title>\\Anax\\Route\\Router&#45;&gt;\\Anax\\DI\\InjectionAwareInterface</title>
<path fill="none" stroke="#000000" stroke-dasharray="1,5" d="M1023.7818,-1404.7904C995.9071,-1410.2467 954.031,-1422.975 931.7087,-1451.8948 812.3059,-1606.5875 995.9056,-1739.4078 867.7087,-1886.8948 866.9724,-1887.7418 866.2111,-1888.563 865.4265,-1889.359"/>
<polygon fill="none" stroke="#000000" points="863.1307,-1886.717 857.788,-1895.8661 867.6701,-1892.0456 863.1307,-1886.717"/>
</g>
<!-- \\Anax\\Route\\RouterInjectable -->
<g id="node54" class="node">
<title>\\Anax\\Route\\RouterInjectable</title>
<polygon fill="none" stroke="#000000" points="1112.192,-1310.8948 991.0258,-1310.8948 991.0258,-1274.8948 1112.192,-1274.8948 1112.192,-1310.8948"/>
<text text-anchor="middle" x="1051.6089" y="-1289.5948" font-family="Courier,monospace" font-size="11.00" fill="#000000">RouterInjectable</text>
</g>
<!-- \\Anax\\Route\\RouterInjectable&#45;&gt;\\Anax\\Common\\AppInjectableInterface -->
<g id="edge36" class="edge">
<title>\\Anax\\Route\\RouterInjectable&#45;&gt;\\Anax\\Common\\AppInjectableInterface</title>
<path fill="none" stroke="#000000" stroke-dasharray="1,5" d="M990.7708,-1295.6308C969.3407,-1293.3544 946.8451,-1286.7278 931.7087,-1270.8948 787.2462,-1119.7833 1004.0958,-963.3329 867.7087,-804.8948 866.6917,-803.7134 865.6261,-802.5823 864.5165,-801.4995"/>
<polygon fill="none" stroke="#000000" points="866.566,-798.6541 856.6102,-795.0305 862.1333,-804.0718 866.566,-798.6541"/>
</g>
<!-- \\Anax\\Session\\Session -->
<g id="node55" class="node">
<title>\\Anax\\Session\\Session</title>
<polygon fill="none" stroke="#000000" points="324.1651,-964.8948 261.7799,-964.8948 261.7799,-928.8948 324.1651,-928.8948 324.1651,-964.8948"/>
<text text-anchor="middle" x="292.9725" y="-943.5948" font-family="Courier,monospace" font-size="11.00" fill="#000000">Session</text>
</g>
<!-- \\Anax\\Session\\SessionInterface -->
<g id="node57" class="node">
<title>\\Anax\\Session\\SessionInterface</title>
<polygon fill="none" stroke="#000000" points="153.3743,-964.8948 32.2081,-964.8948 32.2081,-928.8948 153.3743,-928.8948 153.3743,-964.8948"/>
<text text-anchor="middle" x="92.7912" y="-943.5948" font-family="Courier,monospace" font-size="11.00" fill="#000000">SessionInterface</text>
</g>
<!-- \\Anax\\Session\\Session&#45;&gt;\\Anax\\Session\\SessionInterface -->
<g id="edge37" class="edge">
<title>\\Anax\\Session\\Session&#45;&gt;\\Anax\\Session\\SessionInterface</title>
<path fill="none" stroke="#000000" stroke-dasharray="1,5" d="M261.6942,-946.8948C235.5849,-946.8948 197.3675,-946.8948 163.8872,-946.8948"/>
<polygon fill="none" stroke="#000000" points="163.6676,-943.3949 153.6675,-946.8948 163.6675,-950.3949 163.6676,-943.3949"/>
</g>
<!-- \\Anax\\Session\\SessionConfigurable -->
<g id="node56" class="node">
<title>\\Anax\\Session\\SessionConfigurable</title>
<polygon fill="none" stroke="#000000" points="597.0279,-964.8948 455.2687,-964.8948 455.2687,-928.8948 597.0279,-928.8948 597.0279,-964.8948"/>
<text text-anchor="middle" x="526.1483" y="-943.5948" font-family="Courier,monospace" font-size="11.00" fill="#000000">SessionConfigurable</text>
</g>
<!-- \\Anax\\Session\\SessionConfigurable&#45;&gt;\\Anax\\Configure\\ConfigureInterface -->
<g id="edge39" class="edge">
<title>\\Anax\\Session\\SessionConfigurable&#45;&gt;\\Anax\\Configure\\ConfigureInterface</title>
<path fill="none" stroke="#000000" stroke-dasharray="1,5" d="M474.1093,-928.8176C438.7473,-916.5336 391.8166,-900.231 354.5859,-887.2978"/>
<polygon fill="none" stroke="#000000" points="355.4472,-883.892 344.8524,-883.9167 353.1502,-890.5044 355.4472,-883.892"/>
</g>
<!-- \\Anax\\Session\\SessionConfigurable&#45;&gt;\\Anax\\Session\\Session -->
<g id="edge38" class="edge">
<title>\\Anax\\Session\\SessionConfigurable&#45;&gt;\\Anax\\Session\\Session</title>
<path fill="none" stroke="#000000" d="M455.2382,-946.8948C415.8238,-946.8948 368.1365,-946.8948 334.693,-946.8948"/>
<polygon fill="none" stroke="#000000" points="334.3638,-943.3949 324.3638,-946.8948 334.3638,-950.3949 334.3638,-943.3949"/>
</g>
<!-- \\Anax\\TextFilter\\Filter\\Exception -->
<g id="node58" class="node">
<title>\\Anax\\TextFilter\\Filter\\Exception</title>
<polygon fill="none" stroke="#000000" points="1338.892,-849.8948 1263.1098,-849.8948 1263.1098,-813.8948 1338.892,-813.8948 1338.892,-849.8948"/>
<text text-anchor="middle" x="1301.0009" y="-828.5948" font-family="Courier,monospace" font-size="11.00" fill="#000000">Exception</text>
</g>
<!-- \\Anax\\TextFilter\\Filter\\Exception&#45;&gt;\\Exception -->
<g id="edge41" class="edge">
<title>\\Anax\\TextFilter\\Filter\\Exception&#45;&gt;\\Exception</title>
<path fill="none" stroke="#000000" d="M1263.1229,-825.9805C1253.8325,-822.7234 1244.8361,-817.6846 1238.8086,-809.8948 1132.6119,-672.6487 1289.7923,-158.8724 1171.5091,-31.8948 1134.7335,7.5841 1099.9798,-36.7963 1051.6089,-12.8948"/>
</g>
<!-- \\Anax\\TextFilter\\Filter\\Frontmatter -->
<g id="node59" class="node">
<title>\\Anax\\TextFilter\\Filter\\Frontmatter</title>
<polygon fill="none" stroke="#000000" points="1345.0897,-957.8948 1256.912,-957.8948 1256.912,-921.8948 1345.0897,-921.8948 1345.0897,-957.8948"/>
<text text-anchor="middle" x="1301.0009" y="-936.5948" font-family="Courier,monospace" font-size="11.00" fill="#000000">Frontmatter</text>
</g>
<!-- \\Anax\\TextFilter\\Filter\\FilterInterface -->
<g id="node61" class="node">
<title>\\Anax\\TextFilter\\Filter\\FilterInterface</title>
<polygon fill="none" stroke="#000000" points="1109.0924,-930.8948 994.1254,-930.8948 994.1254,-894.8948 1109.0924,-894.8948 1109.0924,-930.8948"/>
<text text-anchor="middle" x="1051.6089" y="-909.5948" font-family="Courier,monospace" font-size="11.00" fill="#000000">FilterInterface</text>
</g>
<!-- \\Anax\\TextFilter\\Filter\\Frontmatter&#45;&gt;\\Anax\\TextFilter\\Filter\\FilterInterface -->
<g id="edge42" class="edge">
<title>\\Anax\\TextFilter\\Filter\\Frontmatter&#45;&gt;\\Anax\\TextFilter\\Filter\\FilterInterface</title>
<path fill="none" stroke="#000000" stroke-dasharray="1,5" d="M1256.702,-935.0988C1218.5242,-930.9656 1162.8188,-924.9347 1119.095,-920.201"/>
<polygon fill="none" stroke="#000000" points="1119.4281,-916.7167 1109.1094,-919.12 1118.6746,-923.6761 1119.4281,-916.7167"/>
</g>
<!-- \\Anax\\TextFilter\\Filter\\Variable -->
<g id="node60" class="node">
<title>\\Anax\\TextFilter\\Filter\\Variable</title>
<polygon fill="none" stroke="#000000" points="1335.2924,-903.8948 1266.7094,-903.8948 1266.7094,-867.8948 1335.2924,-867.8948 1335.2924,-903.8948"/>
<text text-anchor="middle" x="1301.0009" y="-882.5948" font-family="Courier,monospace" font-size="11.00" fill="#000000">Variable</text>
</g>
<!-- \\Anax\\TextFilter\\Filter\\Variable&#45;&gt;\\Anax\\TextFilter\\Filter\\FilterInterface -->
<g id="edge43" class="edge">
<title>\\Anax\\TextFilter\\Filter\\Variable&#45;&gt;\\Anax\\TextFilter\\Filter\\FilterInterface</title>
<path fill="none" stroke="#000000" stroke-dasharray="1,5" d="M1266.5858,-889.6206C1228.6621,-893.7264 1166.7258,-900.4318 1119.0512,-905.5932"/>
<polygon fill="none" stroke="#000000" points="1118.6734,-902.1136 1109.1082,-906.6697 1119.4269,-909.0729 1118.6734,-902.1136"/>
</g>
<!-- \\Anax\\TextFilter\\Exception -->
<g id="node62" class="node">
<title>\\Anax\\TextFilter\\Exception</title>
<polygon fill="none" stroke="#000000" points="1338.892,-795.8948 1263.1098,-795.8948 1263.1098,-759.8948 1338.892,-759.8948 1338.892,-795.8948"/>
<text text-anchor="middle" x="1301.0009" y="-774.5948" font-family="Courier,monospace" font-size="11.00" fill="#000000">Exception</text>
</g>
<!-- \\Anax\\TextFilter\\Exception&#45;&gt;\\Exception -->
<g id="edge40" class="edge">
<title>\\Anax\\TextFilter\\Exception&#45;&gt;\\Exception</title>
<path fill="none" stroke="#000000" d="M526.1483,-731.8948C430.9016,-496.8878 332.3079,-206.5336 302.2258,-116.6922"/>
<polygon fill="none" stroke="#000000" points="305.469,-115.3542 298.9793,-106.9796 298.83,-117.5734 305.469,-115.3542"/>
<path fill="none" stroke="#000000" d="M775.8213,-112.8948C734.5112,-112.9039 714.6224,-99.2407 683.934,-126.8948 632.3257,-173.4004 552.2426,-796.2786 526.1483,-731.8948"/>
<path fill="none" stroke="#000000" d="M1051.6089,-12.8948C934.7193,44.8641 906.2026,-112.866 775.8213,-112.8948"/>
<path fill="none" stroke="#000000" d="M1263.0092,-768.8313C1253.7183,-764.827 1244.7501,-759.0906 1238.8086,-750.8948 1144.6191,-620.968 1281.3043,-148.9316 1171.5091,-31.8948 1134.5947,7.4544 1099.9798,-36.7963 1051.6089,-12.8948"/>
</g>
<!-- \\Anax\\TextFilter\\TextFilter -->
<g id="node63" class="node">
<title>\\Anax\\TextFilter\\TextFilter</title>
<polygon fill="none" stroke="#000000" points="1341.9899,-741.8948 1260.0119,-741.8948 1260.0119,-705.8948 1341.9899,-705.8948 1341.9899,-741.8948"/>
<text text-anchor="middle" x="1301.0009" y="-720.5948" font-family="Courier,monospace" font-size="11.00" fill="#000000">TextFilter</text>
</g>
<!-- \\Anax\\TextFilter\\TShortcode -->
<g id="node64" class="node">
<title>\\Anax\\TextFilter\\TShortcode</title>
<polygon fill="none" stroke="#000000" points="1341.9899,-687.8948 1260.0119,-687.8948 1260.0119,-651.8948 1341.9899,-651.8948 1341.9899,-687.8948"/>
<text text-anchor="middle" x="1301.0009" y="-666.5948" font-family="Courier,monospace" font-size="11.00" fill="#000000">TShortcode</text>
</g>
<!-- \\Anax\\TextFilter\\TTextUtilities -->
<g id="node65" class="node">
<title>\\Anax\\TextFilter\\TTextUtilities</title>
<polygon fill="none" stroke="#000000" points="1355.3862,-633.8948 1246.6156,-633.8948 1246.6156,-597.8948 1355.3862,-597.8948 1355.3862,-633.8948"/>
<text text-anchor="middle" x="1301.0009" y="-612.5948" font-family="Courier,monospace" font-size="11.00" fill="#000000">TTextUtilities</text>
</g>
<!-- \\Anax\\Url\\Exception -->
<g id="node66" class="node">
<title>\\Anax\\Url\\Exception</title>
<polygon fill="none" stroke="#000000" points="564.0394,-795.8948 488.2572,-795.8948 488.2572,-759.8948 564.0394,-759.8948 564.0394,-795.8948"/>
<text text-anchor="middle" x="526.1483" y="-774.5948" font-family="Courier,monospace" font-size="11.00" fill="#000000">Exception</text>
</g>
<!-- \\Anax\\Url\\Exception&#45;&gt;\\Exception -->
<g id="edge44" class="edge">
<title>\\Anax\\Url\\Exception&#45;&gt;\\Exception</title>
<path fill="none" stroke="#000000" d="M488.1422,-775.29C466.45,-771.7826 440.4535,-763.8106 424.3626,-745.8948 338.5167,-650.3131 302.9928,-230.5163 294.8642,-117.1788"/>
<polygon fill="none" stroke="#000000" points="298.3344,-116.6296 294.1425,-106.8993 291.3516,-117.1199 298.3344,-116.6296"/>
</g>
<!-- \\Anax\\Url\\Url -->
<g id="node67" class="node">
<title>\\Anax\\Url\\Url</title>
<polygon fill="none" stroke="#000000" points="553.1483,-849.8948 499.1483,-849.8948 499.1483,-813.8948 553.1483,-813.8948 553.1483,-849.8948"/>
<text text-anchor="middle" x="526.1483" y="-828.5948" font-family="Courier,monospace" font-size="11.00" fill="#000000">Url</text>
</g>
<!-- \\Anax\\Url\\Url&#45;&gt;\\Anax\\Configure\\ConfigureInterface -->
<g id="edge45" class="edge">
<title>\\Anax\\Url\\Url&#45;&gt;\\Anax\\Configure\\ConfigureInterface</title>
<path fill="none" stroke="#000000" stroke-dasharray="1,5" d="M498.9437,-835.8615C467.5593,-840.4378 414.5787,-848.163 370.2111,-854.6324"/>
<polygon fill="none" stroke="#000000" points="369.6957,-851.1704 360.3054,-856.0768 370.7058,-858.0972 369.6957,-851.1704"/>
</g>
<!-- \\Anax\\View\\Exception -->
<g id="node68" class="node">
<title>\\Anax\\View\\Exception</title>
<polygon fill="none" stroke="#000000" points="1089.5,-228.8948 1013.7178,-228.8948 1013.7178,-192.8948 1089.5,-192.8948 1089.5,-228.8948"/>
<text text-anchor="middle" x="1051.6089" y="-207.5948" font-family="Courier,monospace" font-size="11.00" fill="#000000">Exception</text>
</g>
<!-- \\Anax\\View\\Exception&#45;&gt;\\Exception -->
<g id="edge46" class="edge">
<title>\\Anax\\View\\Exception&#45;&gt;\\Exception</title>
<path fill="none" stroke="#000000" d="M1013.744,-207.3226C989.273,-203.8457 957.3309,-197.0571 931.7087,-183.8948 897.8276,-166.4898 902.1805,-143.0984 867.7087,-126.8948 830.3228,-109.3214 817.1315,-112.8856 775.8213,-112.8948"/>
</g>
<!-- \\Anax\\View\\View -->
<g id="node69" class="node">
<title>\\Anax\\View\\View</title>
<polygon fill="none" stroke="#000000" points="1078.6089,-498.8948 1024.6089,-498.8948 1024.6089,-462.8948 1078.6089,-462.8948 1078.6089,-498.8948"/>
<text text-anchor="middle" x="1051.6089" y="-477.5948" font-family="Courier,monospace" font-size="11.00" fill="#000000">View</text>
</g>
<!-- \\Anax\\View\\View2 -->
<g id="node70" class="node">
<title>\\Anax\\View\\View2</title>
<polygon fill="none" stroke="#000000" points="1078.6089,-444.8948 1024.6089,-444.8948 1024.6089,-408.8948 1078.6089,-408.8948 1078.6089,-444.8948"/>
<text text-anchor="middle" x="1051.6089" y="-423.5948" font-family="Courier,monospace" font-size="11.00" fill="#000000">View2</text>
</g>
<!-- \\Anax\\View\\ViewCollection -->
<g id="node71" class="node">
<title>\\Anax\\View\\ViewCollection</title>
<polygon fill="none" stroke="#000000" points="1105.9942,-552.8948 997.2236,-552.8948 997.2236,-516.8948 1105.9942,-516.8948 1105.9942,-552.8948"/>
<text text-anchor="middle" x="1051.6089" y="-531.5948" font-family="Courier,monospace" font-size="11.00" fill="#000000">ViewCollection</text>
</g>
<!-- \\Anax\\View\\ViewCollection&#45;&gt;\\Anax\\Configure\\ConfigureInterface -->
<g id="edge47" class="edge">
<title>\\Anax\\View\\ViewCollection&#45;&gt;\\Anax\\Configure\\ConfigureInterface</title>
<path fill="none" stroke="#000000" stroke-dasharray="1,5" d="M997.3075,-523.4085C921.9132,-508.0916 792.8184,-484.3903 775.8213,-497.8948"/>
</g>
<!-- \\Anax\\View\\ViewCollection&#45;&gt;\\Anax\\DI\\InjectionAwareInterface -->
<g id="edge48" class="edge">
<title>\\Anax\\View\\ViewCollection&#45;&gt;\\Anax\\DI\\InjectionAwareInterface</title>
<path fill="none" stroke="#000000" stroke-dasharray="1,5" d="M1040.5678,-553.1491C1015.7782,-595.2114 955.9753,-702.9458 931.7087,-801.8948 902.9442,-919.1842 942.8875,-1792.3836 867.7087,-1886.8948 867.12,-1887.6348 866.5121,-1888.3554 865.8862,-1889.0568"/>
<polygon fill="none" stroke="#000000" points="863.4948,-1886.5011 858.5409,-1895.8664 868.2539,-1891.6345 863.4948,-1886.5011"/>
</g>
<!-- \\Anax\\View\\ViewContainer -->
<g id="node72" class="node">
<title>\\Anax\\View\\ViewContainer</title>
<polygon fill="none" stroke="#000000" points="1102.3948,-390.8948 1000.823,-390.8948 1000.823,-354.8948 1102.3948,-354.8948 1102.3948,-390.8948"/>
<text text-anchor="middle" x="1051.6089" y="-369.5948" font-family="Courier,monospace" font-size="11.00" fill="#000000">ViewContainer</text>
</g>
<!-- \\Anax\\View\\ViewContainer&#45;&gt;\\Anax\\Common\\AppInjectableInterface -->
<g id="edge50" class="edge">
<title>\\Anax\\View\\ViewContainer&#45;&gt;\\Anax\\Common\\AppInjectableInterface</title>
<path fill="none" stroke="#000000" stroke-dasharray="1,5" d="M1000.7544,-372.0465C976.6625,-374.393 949.3639,-381.4979 931.7087,-399.8948 821.9112,-514.3046 973.7717,-633.0146 867.7087,-750.8948 866.6661,-752.0535 865.5766,-753.1637 864.4451,-754.2271"/>
<polygon fill="none" stroke="#000000" points="862.0805,-751.6352 856.4181,-760.59 866.4289,-757.1208 862.0805,-751.6352"/>
</g>
<!-- \\Anax\\View\\ViewContainer&#45;&gt;\\Anax\\Common\\ConfigureInterface -->
<g id="edge49" class="edge">
<title>\\Anax\\View\\ViewContainer&#45;&gt;\\Anax\\Common\\ConfigureInterface</title>
<path fill="none" stroke="#000000" stroke-dasharray="1,5" d="M1000.7008,-372.3191C976.7444,-374.7551 949.5799,-381.8575 931.7087,-399.8948 836.6707,-495.8159 959.6142,-597.9682 867.7087,-696.8948 863.3269,-701.6113 858.1687,-705.5187 852.5691,-708.7539"/>
<polygon fill="none" stroke="#000000" points="850.8382,-705.706 843.4545,-713.3042 853.9649,-711.969 850.8382,-705.706"/>
</g>
<!-- \\Anax\\View\\ViewRenderFile -->
<g id="node73" class="node">
<title>\\Anax\\View\\ViewRenderFile</title>
<polygon fill="none" stroke="#000000" points="1105.9942,-336.8948 997.2236,-336.8948 997.2236,-300.8948 1105.9942,-300.8948 1105.9942,-336.8948"/>
<text text-anchor="middle" x="1051.6089" y="-315.5948" font-family="Courier,monospace" font-size="11.00" fill="#000000">ViewRenderFile</text>
</g>
<!-- \\Anax\\View\\ViewRenderFile&#45;&gt;\\Anax\\Common\\AppInjectableInterface -->
<g id="edge52" class="edge">
<title>\\Anax\\View\\ViewRenderFile&#45;&gt;\\Anax\\Common\\AppInjectableInterface</title>
<path fill="none" stroke="#000000" stroke-dasharray="1,5" d="M997.2163,-318.2189C973.9388,-320.8515 948.3428,-328.1469 931.7087,-345.8948 807.0896,-478.8578 987.9893,-613.9945 867.7087,-750.8948 866.6798,-752.0658 865.6031,-753.1872 864.4834,-754.2612"/>
<polygon fill="none" stroke="#000000" points="862.1087,-751.6799 856.5211,-760.6816 866.5026,-757.1291 862.1087,-751.6799"/>
</g>
<!-- \\Anax\\View\\ViewRenderFileInterface -->
<g id="node75" class="node">
<title>\\Anax\\View\\ViewRenderFileInterface</title>
<polygon fill="none" stroke="#000000" points="859.5962,-552.8948 692.0465,-552.8948 692.0465,-516.8948 859.5962,-516.8948 859.5962,-552.8948"/>
<text text-anchor="middle" x="775.8213" y="-531.5948" font-family="Courier,monospace" font-size="11.00" fill="#000000">ViewRenderFileInterface</text>
</g>
<!-- \\Anax\\View\\ViewRenderFile&#45;&gt;\\Anax\\View\\ViewRenderFileInterface -->
<g id="edge51" class="edge">
<title>\\Anax\\View\\ViewRenderFile&#45;&gt;\\Anax\\View\\ViewRenderFileInterface</title>
<path fill="none" stroke="#000000" stroke-dasharray="1,5" d="M997.1821,-320.3381C974.7259,-323.4809 949.7837,-330.5897 931.7087,-345.8948 874.2025,-394.5883 922.3572,-451.0145 867.7087,-502.8948 864.3799,-506.0549 860.7225,-508.9048 856.8439,-511.4746"/>
<polygon fill="none" stroke="#000000" points="854.8776,-508.5708 848.041,-516.6647 858.4328,-514.6008 854.8776,-508.5708"/>
</g>
<!-- \\Anax\\View\\ViewRenderFile2 -->
<g id="node74" class="node">
<title>\\Anax\\View\\ViewRenderFile2</title>
<polygon fill="none" stroke="#000000" points="1109.0924,-282.8948 994.1254,-282.8948 994.1254,-246.8948 1109.0924,-246.8948 1109.0924,-282.8948"/>
<text text-anchor="middle" x="1051.6089" y="-261.5948" font-family="Courier,monospace" font-size="11.00" fill="#000000">ViewRenderFile2</text>
</g>
<!-- \\Anax\\View\\ViewRenderFile2&#45;&gt;\\Anax\\Configure\\ConfigureInterface -->
<g id="edge54" class="edge">
<title>\\Anax\\View\\ViewRenderFile2&#45;&gt;\\Anax\\Configure\\ConfigureInterface</title>
<path fill="none" stroke="#000000" stroke-dasharray="1,5" d="M526.1483,-887.8948C474.1567,-892.1772 415.7126,-886.6417 370.3418,-880.0534"/>
<polygon fill="none" stroke="#000000" points="370.6889,-876.5664 360.2803,-878.5443 369.6505,-883.489 370.6889,-876.5664"/>
<path fill="none" stroke="#000000" stroke-dasharray="1,5" d="M775.8213,-497.8948C743.6575,-523.4496 713.8491,-479.7407 683.934,-507.8948 560.8097,-623.7709 746.2058,-770.4568 619.934,-882.8948 588.7599,-910.6535 567.7491,-884.4682 526.1483,-887.8948"/>
<path fill="none" stroke="#000000" stroke-dasharray="1,5" d="M994.1172,-269.5464C973.2029,-273.2983 950.1848,-279.9935 931.7087,-291.8948 835.1848,-354.0698 865.717,-426.471 775.8213,-497.8948"/>
</g>
<!-- \\Anax\\View\\ViewRenderFile2&#45;&gt;\\Anax\\DI\\InjectionAwareInterface -->
<g id="edge55" class="edge">
<title>\\Anax\\View\\ViewRenderFile2&#45;&gt;\\Anax\\DI\\InjectionAwareInterface</title>
<path fill="none" stroke="#000000" stroke-dasharray="1,5" d="M994.068,-263.5924C971.2047,-266.2745 946.8021,-273.7814 931.7087,-291.8948 818.1672,-428.1541 976.8114,-1747.056 867.7087,-1886.8948 867.2293,-1887.5093 866.7366,-1888.1103 866.2313,-1888.6982"/>
<polygon fill="none" stroke="#000000" points="863.804,-1886.1766 859.0051,-1895.6223 868.647,-1891.2309 863.804,-1886.1766"/>
</g>
<!-- \\Anax\\View\\ViewRenderFile2&#45;&gt;\\Anax\\View\\ViewRenderFileInterface -->
<g id="edge53" class="edge">
<title>\\Anax\\View\\ViewRenderFile2&#45;&gt;\\Anax\\View\\ViewRenderFileInterface</title>
<path fill="none" stroke="#000000" stroke-dasharray="1,5" d="M994.0324,-265.8902C972.1208,-269.0838 948.431,-276.3508 931.7087,-291.8948 859.9319,-358.6139 935.5813,-432.2076 867.7087,-502.8948 864.7472,-505.979 861.473,-508.7662 857.9769,-511.285"/>
<polygon fill="none" stroke="#000000" points="856.0288,-508.3759 849.4594,-516.6882 859.7785,-514.2869 856.0288,-508.3759"/>
</g>
<!-- \\Anax\\View\\ViewHelperTrait -->
<g id="node76" class="node">
<title>\\Anax\\View\\ViewHelperTrait</title>
<polygon fill="none" stroke="#000000" points="1109.0924,-174.8948 994.1254,-174.8948 994.1254,-138.8948 1109.0924,-138.8948 1109.0924,-174.8948"/>
<text text-anchor="middle" x="1051.6089" y="-153.5948" font-family="Courier,monospace" font-size="11.00" fill="#000000">ViewHelperTrait</text>
</g>
</g>
</svg>
